<svg xmlns="http://www.w3.org/2000/svg" width="1922" height="1081" viewBox="0 0 1922 1081">
  <g id="Grupo_8" data-name="Grupo 8" transform="translate(1.5 0.5)">
    <path id="Caminho_2" data-name="Caminho 2" d="M3979.423,451.585s110.166,5.666,126.47-40.5-68.841-107.108-45.29-132.962,114.131-42.474,119.566-81.254,25.363-72.021,79.711-73.868,139.494-24.007,150.364-51.707-19.928-46.167,47.1-55.4,121.378-35.087,121.378-35.087H3950.095v470.78Z" transform="translate(-3951.095 19.195)" fill="#2b525d" stroke="#707070" stroke-width="1"/>
    <path id="Caminho_3" data-name="Caminho 3" d="M3977.843,451.585s104.237,5.666,119.664-40.5-65.136-107.108-42.853-132.962,107.989-42.474,113.131-81.254,24-72.021,75.421-73.868,131.986-24.007,142.271-51.707-18.855-46.167,44.566-55.4,114.845-35.087,114.845-35.087H3950.095v470.78Z" transform="translate(5870.095 1060.805) rotate(180)" fill="#2b525d" stroke="#707070" stroke-width="1"/>
  </g>
</svg>
